# xmcd
#
# Track frame offsets:
#	150
#	28332
#	40040
#	51592
#	60330
#	82940
#	92567
#	103970
#	115997
#	139215
#	169137
#	179750
#	199752
#	209680
#	218815
#	229967
#	240312
#	249077
#	268967
#	278625
#
# Disc length: 3864 seconds
#
# Revision: 1
# Processed by: cddbd v1.5.2PL0 Copyright (c) Steve Scherf et al.
# Submitted via: audiograbber 1.83.01
#
DISCID=2b0f1614
DTITLE=Various Christmas - Ultra-Lounge - Christmas Cocktails - Part 2
DYEAR=2000
DGENRE=Christmas - Lounge
TTITLE0=Caiola and Ortolani/Jimmy McGriff - Sleigh Ride - Jingle Bells
TTITLE1=Lena Horne - Jingle All The Way
TTITLE2=Lou Rawls - Merry Christmas Baby
TTITLE3=Julie London - Warm December
TTITLE4=Eddie Dunstedter - Let It Snow!-rudolph, The Red-nosed Reindeer
TTITLE5=June Christy - The Merriest
TTITLE6=Nat King Cole Trio - All I Want For Christmas (Is My Two Front Teeth)
TTITLE7=Nancy Wilson - The Christmas Waltz
TTITLE8=Les Brown/Starlighters - I've Got My Love To Keep Me Warm-jing-a-ling
TTITLE9=Jimmy McGriff - I Saw Mommy Kissing Santa Claus
TTITLE10=Dean Martin - Baby, It's Cold Outside
TTITLE11=George Shearing/Billy May - Snowfall-snowfall Cha-cha
TTITLE12=Wayne Newton - Jingle Bell Rock
TTITLE13=The Ventures - Frosty The Snowman
TTITLE14=Bob Atcher and The Dinning Sisters - Christmas Island
TTITLE15=Martin Denny - Exotic Night
TTITLE16=Peggy Lee - Happy Holiday
TTITLE17=Ferrante and Teicher/Les Baxter - Sleigh Ride-santa Claus' Party
TTITLE18=Guy Lombardo and His Royal Canadians (Bonus Track) - Auld Lang Syne
TTITLE19=Stan Kenton (Bonus Track) - What Is A Santa Claus?
EXTD=
EXTT0=
EXTT1=
EXTT2=
EXTT3=
EXTT4=
EXTT5=
EXTT6=
EXTT7=
EXTT8=
EXTT9=
EXTT10=
EXTT11=
EXTT12=
EXTT13=
EXTT14=
EXTT15=
EXTT16=
EXTT17=
EXTT18=
EXTT19=
PLAYORDER=
